<?xml version="1.0" encoding="utf-8"?>
<!-- Generator: Adobe Illustrator 18.0.0, SVG Export Plug-In . SVG Version: 6.00 Build 0)  -->
<!DOCTYPE svg PUBLIC "-//W3C//DTD SVG 1.1//EN" "http://www.w3.org/Graphics/SVG/1.1/DTD/svg11.dtd">
<svg version="1.1" id="Layer_1" xmlns="http://www.w3.org/2000/svg" xmlns:xlink="http://www.w3.org/1999/xlink" x="0px" y="0px"
	 width="60px" height="60px" viewBox="0 0 60 60" enable-background="new 0 0 60 60" xml:space="preserve">
<path fill="#1A3E6E" d="M31.5,28.4c2.3,0.7,4.3,1.7,6,2.8c1.7,1.1,2.6,2.9,2.6,5.6c0,1.8-0.6,3.5-1.9,5.1c-1.3,1.6-3.5,2.5-6.7,2.7
	v2.8c0,0,0,0.9-0.9,0.9c-1,0-0.9-0.9-0.9-0.9v-2.8c-3.6-0.2-6.9-1.6-9-4.2c0,0-0.6-0.7,0.1-1.4c0.7-0.7,1.5,0.1,1.5,0.1
	c1.2,1.4,3.7,3.4,7.4,3.7V29.9c-2.1-0.5-3.9-1.3-5.7-2.2c-1.8-1-2.7-2.7-2.7-5.2c0-1.7,0.7-3.3,2.1-4.9c1.3-1.6,3.5-2.4,6.4-2.5
	v-2.9c0,0,0-0.9,0.9-0.9c0.9,0,0.9,0.9,0.9,0.9v2.9c3,0.2,5.5,1.3,7.4,3.3c0,0,0.8,0.9,0.1,1.6c-0.7,0.7-1.5-0.2-1.5-0.2
	c-1.6-1.6-3.6-2.6-6-2.9V28.4z M29.6,27.8v-11c-3.7,0.2-6.4,2.6-6.4,5.6C23.2,25.5,26,26.7,29.6,27.8z M31.5,42.7
	c3.1-0.2,5-1.1,5.6-2.7c0.7-1.6,1.1-2.7,1.1-3.3c0-1.9-0.7-3.3-2-4.2c-1.3-0.9-2.9-1.6-4.7-2.1V42.7z M8.8,8.8C3.4,14.2,0,21.7,0,30
	c0,8.3,3.4,15.8,8.8,21.2S21.7,60,30,60s15.8-3.4,21.2-8.8C56.6,45.8,60,38.3,60,30c0-8.3-3.4-15.8-8.8-21.2C45.8,3.4,38.3,0,30,0
	S14.2,3.4,8.8,8.8z"/>
</svg>
