<?xml version="1.0" encoding="utf-8"?>
<!-- Generator: Adobe Illustrator 16.0.4, SVG Export Plug-In . SVG Version: 6.00 Build 0)  -->
<!DOCTYPE svg PUBLIC "-//W3C//DTD SVG 1.1//EN" "http://www.w3.org/Graphics/SVG/1.1/DTD/svg11.dtd">
<svg version="1.1" xmlns="http://www.w3.org/2000/svg" xmlns:xlink="http://www.w3.org/1999/xlink" x="0px" y="0px" width="62px"
	 height="62px" viewBox="0 0 62 62" enable-background="new 0 0 62 62" xml:space="preserve">
<g id="Layer_1" display="none">
	<path display="inline" fill="#1A3E6E" d="M31,61c16.568,0,30-13.43,30-30C61,14.43,47.568,1,31,1C14.431,1,1,14.43,1,31
		C1,47.57,14.431,61,31,61"/>
	<path display="inline" fill="#FFFFFF" d="M45.551,15.459c-0.221-0.169-0.529-0.115-0.686,0.12L24.736,45.314l-7.653-8.109
		c-0.192-0.204-0.503-0.204-0.695,0c-0.193,0.204-0.193,0.533,0,0.736l8.062,8.545c0.092,0.098,0.218,0.152,0.348,0.152
		c0.013,0,0.026,0,0.04,0c0.144-0.014,0.275-0.093,0.359-0.217l20.467-30.235C45.822,15.952,45.771,15.627,45.551,15.459"/>
</g>
<g id="Layer_2">
	<path fill="#1A3E6E" d="M31,61.016c16.569,0,30-13.43,30-30s-13.431-30-30-30s-30,13.43-30,30S14.431,61.016,31,61.016"/>
	<path fill="#FFFFFF" d="M44.773,41.032c0,0.738-0.718,1.435-1.476,1.435H18.703c-0.759,0-1.476-0.696-1.476-1.435V27.639
		c0-0.736,0.717-1.434,1.476-1.434h24.594c0.758,0,1.476,0.697,1.476,1.434V41.032z M43.297,25.248H18.703
		c-1.31,0-2.459,1.118-2.459,2.391v13.394c0,1.273,1.149,2.392,2.459,2.392h24.594c1.31,0,2.459-1.118,2.459-2.392V27.639
		C45.756,26.366,44.607,25.248,43.297,25.248"/>
	<path fill="#FFFFFF" d="M40.837,32.901h-3.935v-3.827h3.935V32.901z M41.33,28.118h-4.919c-0.271,0-0.492,0.214-0.492,0.478v4.783
		c0,0.265,0.221,0.479,0.492,0.479h4.919c0.272,0,0.492-0.215,0.492-0.479v-4.783C41.821,28.332,41.602,28.118,41.33,28.118"/>
	<path fill="#FFFFFF" d="M21.697,30.031h2.481c0.271,0,0.492-0.214,0.492-0.479c0-0.264-0.221-0.479-0.492-0.479h-2.481
		c-0.272,0-0.492,0.215-0.492,0.479C21.205,29.817,21.425,30.031,21.697,30.031"/>
	<path fill="#FFFFFF" d="M21.697,37.684h11.164c0.271,0,0.492-0.214,0.492-0.478s-0.221-0.479-0.492-0.479H21.697
		c-0.272,0-0.492,0.216-0.492,0.479S21.425,37.684,21.697,37.684"/>
	<path fill="#FFFFFF" d="M36.582,39.598H21.697c-0.271,0-0.492,0.214-0.492,0.478c0,0.265,0.221,0.479,0.492,0.479h14.885
		c0.272,0,0.492-0.215,0.492-0.479C37.074,39.812,36.854,39.598,36.582,39.598"/>
	<path fill="#FFFFFF" d="M19.216,23.335h23.567c0.272,0,0.492-0.214,0.492-0.479s-0.22-0.479-0.492-0.479H19.216
		c-0.272,0-0.492,0.214-0.492,0.479S18.944,23.335,19.216,23.335"/>
	<path fill="#FFFFFF" d="M21.697,20.465h18.606c0.272,0,0.492-0.214,0.492-0.478c0-0.266-0.22-0.479-0.492-0.479H21.697
		c-0.272,0-0.492,0.214-0.492,0.479C21.205,20.251,21.425,20.465,21.697,20.465"/>
	<path fill="#FFFFFF" d="M24.178,17.595h13.644c0.272,0,0.492-0.214,0.492-0.478c0-0.266-0.22-0.479-0.492-0.479H24.178
		c-0.272,0-0.492,0.214-0.492,0.479C23.686,17.381,23.906,17.595,24.178,17.595"/>
	<g>
	</g>
	<g>
	</g>
	<g>
	</g>
	<g>
	</g>
	<g>
	</g>
	<g>
	</g>
</g>
</svg>
